# xmcd
#
# Track frame offsets: 
#        150
#        21053
#        46513
#        57253
#        77923
#        84250
#        108413
#        133895
#        158158
#
# Disc length: 2183 seconds
#
# Revision: 2
# Processed by: cddbd v1.5.2PL0 Copyright (c) Steve Scherf et al.
# Submitted via: ExactAudioCopy v0.99pb5
#
DISCID=65088509
DTITLE=Azymuth - Outubro
DYEAR=1980
DGENRE=Latin
TTITLE0=Papasong
TTITLE1=500 Miles High
TTITLE2=Pantanal (Swamp)
TTITLE3=Dear Limmertz
TTITLE4=Carta Pro Airto (Letter to Airto)
TTITLE5=Outubro (October)
TTITLE6=Maracana
TTITLE7=Un Amigo (A Friend)
TTITLE8=Dear Limmertz Prelude
EXTD=YEAR: 1980
EXTT0=
EXTT1=
EXTT2=
EXTT3=
EXTT4=
EXTT5=
EXTT6=
EXTT7=
EXTT8=
PLAYORDER=
